<svg xmlns="http://www.w3.org/2000/svg" width="745" height="732" fill="none">
  <g fill="#3B3B3B" opacity=".2">
    <path
      d="m654.487 501.134 5.864 2.295c13.131-33.401 20.525-70.625 22.055-110.527 0-159.608-129.904-289.512-289.512-289.512h-1.275v6.374h1.275c156.166 0 283.138 126.972 283.138 283.01-1.53 39.137-8.797 75.47-21.672 108.36h.127zM130.921 285.427c14.151-34.548 34.675-65.399 61.064-92.042l-4.589-4.462c-27.026 27.154-47.933 58.769-62.466 94.082l5.864 2.422h.127zm262.744 395.456c78.274-.127 153.233-30.34 205.501-82.736l-4.462-4.462c-51.12 51.248-124.422 80.697-201.039 80.952v6.374-.128z"
      opacity=".6" />
    <path
      d="M393.019 53.795c-112.184 0-216.974 55.328-280.206 148.135l5.227 3.569c62.211-91.022 164.962-145.33 274.979-145.33 183.447 0 332.728 149.282 332.728 332.729 0 183.446-149.281 332.728-332.728 332.728-73.685 0-143.417-23.584-201.804-68.203l-3.825 5.099C246.925 708.033 318.06 732 393.146 732c187.017 0 339.103-152.086 339.103-339.102 0-187.017-152.086-339.103-339.103-339.103h-.127z"
      opacity=".6" />
    <path
      d="M6.374 392.895c0-119.706 54.817-230.87 150.556-305.32l-3.952-4.971C55.71 158.2 0 271.277 0 392.895c0 52.395 10.199 103.388 30.468 151.704l5.865-2.423c-19.888-47.55-29.959-97.778-29.959-149.281zM195.436 53.797l3.187 5.482C257.647 24.604 324.83 6.247 392.906 6.247c144.692 0 280.46 84.138 345.859 214.297l5.736-2.805C678.083 85.413 540.02-.001 392.906-.001c-69.223 0-137.553 18.613-197.597 53.926l.127-.128z"
      opacity=".6" />
  </g>
</svg>